<svg width="28" height="30" viewBox="0 0 28 30" fill="none" xmlns="http://www.w3.org/2000/svg">
<path d="M15.1848 0.320059C14.4243 -0.107645 13.4328 -0.105727 12.6717 0.320059C8.85954 2.42386 5.04731 4.5283 1.23446 6.63114C0.492523 7.02145 -0.00788803 7.8182 9.41237e-05 8.64515V21.3566C-0.00526302 22.1997 0.520948 23.0041 1.28202 23.3891C2.37719 23.9717 3.44121 24.6135 4.55619 25.1574C5.84412 25.7903 7.45546 25.9302 8.75915 25.2702C9.8174 24.7232 10.2874 23.5066 10.286 22.3886C10.2946 18.1935 10.2874 13.9983 10.2894 9.80315C10.3145 9.61672 10.1745 9.41744 9.97115 9.42194C9.48397 9.41422 8.99615 9.41744 8.50897 9.42065C8.3249 9.40329 8.14522 9.55619 8.15915 9.74122C8.15261 13.9093 8.16043 18.0787 8.15518 22.2474C8.16579 22.824 7.77622 23.3782 7.2205 23.5729C5.937 24.0228 2.27355 21.6442 2.27355 21.6442C2.13911 21.5819 2.05374 21.4361 2.06691 21.2912C2.06691 17.0974 2.06757 12.9035 2.06691 8.7104C2.04843 8.54134 2.15263 8.38908 2.30788 8.32006C6.1075 6.22865 9.90515 4.13201 13.7048 2.03932C13.8368 1.95124 14.0207 1.9515 14.1524 2.03996C17.952 4.13201 21.7503 6.22673 25.5506 8.31824C25.7064 8.38715 25.8061 8.54197 25.7903 8.7104C25.7896 12.9035 25.7916 17.0974 25.789 21.2907C25.8002 21.4391 25.7235 21.5829 25.585 21.648C21.8208 23.7281 18.0138 25.7411 14.2838 27.8816C14.121 27.9749 13.9366 28.0807 13.7543 27.9778C12.7734 27.4352 11.8044 26.8716 10.8267 26.3237C10.7204 26.2574 10.5851 26.2289 10.4742 26.3032C10.0359 26.5342 9.62358 26.7212 9.12022 26.9205C8.41329 27.2004 8.52622 27.3148 9.16383 27.6863C10.3071 28.3333 11.4524 28.9778 12.5957 29.6254C13.3484 30.0952 14.3597 30.1286 15.1366 29.6946C18.9494 27.5934 22.761 25.4897 26.5746 23.3886C27.3336 23.0014 27.8624 22.2002 27.8571 21.3565V8.64515C27.8644 7.83498 27.3832 7.05244 26.6636 6.65635C22.8382 4.54229 19.0109 2.43283 15.1848 0.320059Z" fill="#8CC84B"/>
<path d="M20.9378 9.86381C19.4413 9.06324 17.661 9.0206 15.998 9.12528C14.7967 9.24399 13.5331 9.57549 12.6579 10.4367C11.7601 11.3024 11.5647 12.7004 11.9911 13.8306C12.2967 14.6292 13.0659 15.1485 13.8613 15.4232C14.8859 15.785 15.962 15.8968 17.0385 16.0087C18.0204 16.1107 19.0026 16.2128 19.9463 16.5045C20.3318 16.6322 20.7807 16.8277 20.8988 17.2471C21.0078 17.7439 20.8883 18.3212 20.485 18.6664C19.204 19.6802 15.6406 19.5249 14.3749 18.7269C13.8632 18.3869 13.6427 17.7851 13.553 17.2116C13.5431 17.0329 13.3992 16.8689 13.2052 16.8825C12.7193 16.8767 12.2334 16.878 11.7475 16.8819C11.578 16.8676 11.4017 16.9883 11.3924 17.1613C11.2925 19.7881 13.7051 20.9333 15.9685 21.1854C17.2616 21.3086 18.5831 21.3015 19.8565 21.024C20.8137 20.8061 21.7735 20.4047 22.4324 19.6675C23.245 18.7715 23.4047 17.4374 23.0403 16.3213C22.7618 15.4885 21.9656 14.9543 21.1517 14.6795C20.0449 14.3 18.7333 14.096 17.7309 14.0005C16.2738 13.8617 14.5424 13.9184 14.13 12.961C13.9655 12.4597 14.1055 11.8372 14.5662 11.5288C15.7852 10.702 18.266 10.8118 19.5284 11.4295C20.1081 11.7197 20.4439 12.3159 20.5826 12.9177C20.6083 13.0945 20.7272 13.279 20.9319 13.2713C21.4144 13.2809 21.897 13.2738 22.3795 13.2745C22.5452 13.2861 22.7267 13.1925 22.7591 13.0228C22.7386 11.765 22.0963 10.4773 20.9378 9.86381Z" fill="#8CC84B"/>
</svg>
